<svg id="visual" viewBox="0 0 900 675" width="900" height="675" xmlns="http://www.w3.org/2000/svg" xmlns:xlink="http://www.w3.org/1999/xlink" version="1.1"><g><g transform="translate(268 412)"><path d="M0 -48.5L42 -24.3L42 24.3L0 48.5L-42 24.3L-42 -24.3Z" fill="#6096B4"></path></g><g transform="translate(133 199)"><path d="M0 -45L39 -22.5L39 22.5L0 45L-39 22.5L-39 -22.5Z" fill="#6096B4"></path></g><g transform="translate(668 560)"><path d="M0 -35L30.3 -17.5L30.3 17.5L0 35L-30.3 17.5L-30.3 -17.5Z" fill="#6096B4"></path></g><g transform="translate(401 214)"><path d="M0 -43L37.2 -21.5L37.2 21.5L0 43L-37.2 21.5L-37.2 -21.5Z" fill="#6096B4"></path></g><g transform="translate(463 390)"><path d="M0 -32L27.7 -16L27.7 16L0 32L-27.7 16L-27.7 -16Z" fill="#6096B4"></path></g><g transform="translate(517 275)"><path d="M0 -37L32 -18.5L32 18.5L0 37L-32 18.5L-32 -18.5Z" fill="#6096B4"></path></g><g transform="translate(331 319)"><path d="M0 -35L30.3 -17.5L30.3 17.5L0 35L-30.3 17.5L-30.3 -17.5Z" fill="#6096B4"></path></g><g transform="translate(533 137)"><path d="M0 -30L26 -15L26 15L0 30L-26 15L-26 -15Z" fill="#6096B4"></path></g><g transform="translate(741 363)"><path d="M0 -25L21.7 -12.5L21.7 12.5L0 25L-21.7 12.5L-21.7 -12.5Z" fill="#6096B4"></path></g><g transform="translate(833 582)"><path d="M0 -46L39.8 -23L39.8 23L0 46L-39.8 23L-39.8 -23Z" fill="#6096B4"></path></g><g transform="translate(249 582)"><path d="M0 -31L26.8 -15.5L26.8 15.5L0 31L-26.8 15.5L-26.8 -15.5Z" fill="#6096B4"></path></g><g transform="translate(233 270)"><path d="M0 -34L29.4 -17L29.4 17L0 34L-29.4 17L-29.4 -17Z" fill="#6096B4"></path></g><g transform="translate(599 485)"><path d="M0 -43L37.2 -21.5L37.2 21.5L0 43L-37.2 21.5L-37.2 -21.5Z" fill="#6096B4"></path></g><g transform="translate(76 325)"><path d="M0 -26L22.5 -13L22.5 13L0 26L-22.5 13L-22.5 -13Z" fill="#6096B4"></path></g><g transform="translate(231 112)"><path d="M0 -36L31.2 -18L31.2 18L0 36L-31.2 18L-31.2 -18Z" fill="#6096B4"></path></g></g></svg>